<svg xmlns="http://www.w3.org/2000/svg" width="228" height="168" viewBox="0 0 228 168">
  <g font-family="ui-monospace,Menlo,Consolas,monospace" font-size="13" fill="#34d399" fill-opacity=".95" text-anchor="middle">
    <text y="16"><tspan x="6">1</tspan><tspan x="18">1</tspan><tspan x="30">1</tspan><tspan x="42">0</tspan><tspan x="66">0</tspan><tspan x="78">1</tspan><tspan x="90">0</tspan><tspan x="102">0</tspan><tspan x="126">1</tspan><tspan x="138">1</tspan><tspan x="150">0</tspan><tspan x="162">0</tspan><tspan x="186">0</tspan><tspan x="198">1</tspan><tspan x="210">1</tspan><tspan x="222">0</tspan></text>
    <text y="40"><tspan x="6">0</tspan><tspan x="18">0</tspan><tspan x="30">0</tspan><tspan x="42">0</tspan><tspan x="66">0</tspan><tspan x="78">0</tspan><tspan x="90">0</tspan><tspan x="102">1</tspan><tspan x="126">1</tspan><tspan x="138">1</tspan><tspan x="150">0</tspan><tspan x="162">0</tspan><tspan x="186">1</tspan><tspan x="198">1</tspan><tspan x="210">0</tspan><tspan x="222">0</tspan></text>
    <text y="64"><tspan x="6">1</tspan><tspan x="18">1</tspan><tspan x="30">1</tspan><tspan x="42">0</tspan><tspan x="66">1</tspan><tspan x="78">1</tspan><tspan x="90">0</tspan><tspan x="102">1</tspan><tspan x="126">0</tspan><tspan x="138">0</tspan><tspan x="150">0</tspan><tspan x="162">1</tspan><tspan x="186">0</tspan><tspan x="198">1</tspan><tspan x="210">1</tspan><tspan x="222">0</tspan></text>
    <text y="88"><tspan x="6">0</tspan><tspan x="18">0</tspan><tspan x="30">0</tspan><tspan x="42">0</tspan><tspan x="66">0</tspan><tspan x="78">1</tspan><tspan x="90">1</tspan><tspan x="102">1</tspan><tspan x="126">1</tspan><tspan x="138">0</tspan><tspan x="150">0</tspan><tspan x="162">1</tspan><tspan x="186">1</tspan><tspan x="198">0</tspan><tspan x="210">1</tspan><tspan x="222">1</tspan></text>
    <text y="112"><tspan x="6">0</tspan><tspan x="18">1</tspan><tspan x="30">0</tspan><tspan x="42">0</tspan><tspan x="66">0</tspan><tspan x="78">0</tspan><tspan x="90">0</tspan><tspan x="102">0</tspan><tspan x="126">1</tspan><tspan x="138">1</tspan><tspan x="150">0</tspan><tspan x="162">0</tspan><tspan x="186">1</tspan><tspan x="198">0</tspan><tspan x="210">0</tspan><tspan x="222">1</tspan></text>
    <text y="136"><tspan x="6">1</tspan><tspan x="18">0</tspan><tspan x="30">1</tspan><tspan x="42">1</tspan><tspan x="66">0</tspan><tspan x="78">0</tspan><tspan x="90">1</tspan><tspan x="102">1</tspan><tspan x="126">0</tspan><tspan x="138">0</tspan><tspan x="150">0</tspan><tspan x="162">1</tspan><tspan x="186">0</tspan><tspan x="198">0</tspan><tspan x="210">0</tspan><tspan x="222">0</tspan></text>
    <text y="160"><tspan x="6">1</tspan><tspan x="18">1</tspan><tspan x="30">0</tspan><tspan x="42">1</tspan><tspan x="66">1</tspan><tspan x="78">1</tspan><tspan x="90">0</tspan><tspan x="102">0</tspan><tspan x="126">0</tspan><tspan x="138">0</tspan><tspan x="150">0</tspan><tspan x="162">0</tspan><tspan x="186">1</tspan><tspan x="198">1</tspan><tspan x="210">1</tspan><tspan x="222">0</tspan></text>
  </g>
</svg>
